<?xml version="1.0" encoding="utf-8"?>
<!-- Generator: Adobe Illustrator 27.3.1, SVG Export Plug-In . SVG Version: 6.00 Build 0)  -->
<svg version="1.1" id="Layer_1" xmlns="http://www.w3.org/2000/svg" xmlns:xlink="http://www.w3.org/1999/xlink" x="0px" y="0px"
	 viewBox="0 0 2408.2 3072" style="enable-background:new 0 0 2408.2 3072;" xml:space="preserve">
<style type="text/css">
	.st0{fill-rule:evenodd;clip-rule:evenodd;fill:#003780;}
	
		.st1{clip-path:url(#SVGID_00000057843338454067232600000003983802747526152338_);fill:url(#SVGID_00000168112154594328462260000007098965731604887723_);}
	
		.st2{clip-path:url(#SVGID_00000029022965536824911670000004112222004350649999_);fill:url(#SVGID_00000062914900961329352780000017437717184273601196_);}
	
		.st3{clip-path:url(#SVGID_00000160160120585509607810000012125315384668038557_);fill:url(#SVGID_00000135660262877536457570000002846494047737051539_);}
	
		.st4{clip-path:url(#SVGID_00000080893121570379378730000001248226214468570552_);fill:url(#SVGID_00000095326978517449779850000017263545584978076558_);}
	
		.st5{clip-path:url(#SVGID_00000009573485189825841560000015847046343405564829_);fill:url(#SVGID_00000147193524450550141540000003424020834525453498_);}
	
		.st6{clip-path:url(#SVGID_00000016782932601035420260000010515529944837261460_);fill:url(#SVGID_00000067206594553753838710000010156764687047735449_);}
	
		.st7{clip-path:url(#SVGID_00000021081662280248561740000004057630190019054733_);fill:url(#SVGID_00000163774847001880961540000016102588500319193261_);}
	
		.st8{clip-path:url(#SVGID_00000007403622443062660880000014044141944919656882_);fill:url(#SVGID_00000124141595204733700500000003034147170195842193_);}
	
		.st9{clip-path:url(#SVGID_00000054244893372953279730000007970508686910200738_);fill:url(#SVGID_00000121963318233581748760000009638563806163815840_);}
	
		.st10{clip-path:url(#SVGID_00000102520957151877100540000004340285755305189507_);fill:url(#SVGID_00000059303035023119209590000000245468810673877890_);}
	
		.st11{clip-path:url(#SVGID_00000132064679421571392050000012747501279561695619_);fill:url(#SVGID_00000065796347109738331000000015203494224000751271_);}
	.st12{filter:url(#Adobe_OpacityMaskFilter);}
	.st13{fill:url(#SVGID_00000026847458480236241140000003981368261281176212_);}
	.st14{mask:url(#SVGID_00000069371226642270539880000007942811313062061214_);fill-rule:evenodd;clip-rule:evenodd;}
	
		.st15{clip-path:url(#SVGID_00000183941341295131056030000009452609932235356552_);fill:url(#SVGID_00000030470771173792702960000002717240309906943641_);}
	
		.st16{clip-path:url(#SVGID_00000158030998565128025250000009244188214496324799_);fill:url(#SVGID_00000113322616138858014690000001039783116145743502_);}
	
		.st17{clip-path:url(#SVGID_00000067208530837486993270000007539057673615406776_);fill:url(#SVGID_00000136408107771368855310000014646141559767160979_);}
	
		.st18{clip-path:url(#SVGID_00000143612815130857626950000009319490034048782720_);fill:url(#SVGID_00000015341213379405797690000001209714554047709357_);}
	
		.st19{clip-path:url(#SVGID_00000026874408447437883180000016058904148750943675_);fill:url(#SVGID_00000026843391992367993100000017331441201969576871_);}
	
		.st20{clip-path:url(#SVGID_00000106117583469935417960000009614359374364482476_);fill:url(#SVGID_00000082364438885541705860000014039499621764961176_);}
	
		.st21{clip-path:url(#SVGID_00000116215961665173265760000002083251013560446633_);fill:url(#SVGID_00000071529557815463568610000011239052384807492517_);}
	.st22{filter:url(#Adobe_OpacityMaskFilter_00000007405813456838040670000007093757645754533785_);}
	.st23{fill:url(#SVGID_00000101824591602430049460000015151791080718061460_);}
	.st24{mask:url(#SVGID_00000106129040769628647810000006436348164939224758_);fill-rule:evenodd;clip-rule:evenodd;fill:#FCE2A6;}
</style>
<g>
	<path class="st0" d="M1825.4,1079.7l96.9-563.5c0,0-494.1,379.9-211.3,890.2C1753.9,1226,1825.4,1079.7,1825.4,1079.7"/>
	<g>
		<g>
			<defs>
				<path id="SVGID_1_" d="M1825.4,1079.7l96.9-563.5c-105.6,132.3-282.6,434.2-162.3,724.5
					C1793.8,1144.4,1825.4,1079.7,1825.4,1079.7"/>
			</defs>
			<clipPath id="SVGID_00000146463225607728378420000015842902526900065691_">
				<use xlink:href="#SVGID_1_"  style="overflow:visible;"/>
			</clipPath>
			
				<linearGradient id="SVGID_00000088104614956991298280000001275274293105022337_" gradientUnits="userSpaceOnUse" x1="1880.6608" y1="2558.1482" x2="1729.8531" y2="2036.5585" gradientTransform="matrix(1 0 0 -1 0 3092.1064)">
				<stop  offset="0" style="stop-color:#FFCE4B"/>
				<stop  offset="1" style="stop-color:#F452CB"/>
			</linearGradient>
			
				<rect x="1639.8" y="516.3" style="clip-path:url(#SVGID_00000146463225607728378420000015842902526900065691_);fill:url(#SVGID_00000088104614956991298280000001275274293105022337_);" width="282.6" height="724.5"/>
		</g>
	</g>
	<path class="st0" d="M1731,1306.9l-184.4-541.2c0,0-228,515.3,172.9,835c3.4-56.3,12.3-113,24.1-167.1
		C1733.2,1357.6,1731,1306.9,1731,1306.9"/>
	<g>
		<g>
			<defs>
				<path id="SVGID_00000114069056768613090980000001753004433207784587_" d="M1731,1306.9l-184.4-541.2
					c-28.9,163.5-40,502.9,190,702.2c2.2-11.5,4.5-23,7-34.3C1733.2,1357.6,1731,1306.9,1731,1306.9"/>
			</defs>
			<clipPath id="SVGID_00000141413570468165247920000005626040282658124958_">
				<use xlink:href="#SVGID_00000114069056768613090980000001753004433207784587_"  style="overflow:visible;"/>
			</clipPath>
			
				<linearGradient id="SVGID_00000026141027568310394380000013242288484602142116_" gradientUnits="userSpaceOnUse" x1="1547.3461" y1="2241.1045" x2="1690.1495" y2="1752.8593" gradientTransform="matrix(1 0 0 -1 0 3092.1064)">
				<stop  offset="0" style="stop-color:#F452CB"/>
				<stop  offset="1" style="stop-color:#0928D8"/>
			</linearGradient>
			
				<rect x="1506.6" y="765.7" style="clip-path:url(#SVGID_00000141413570468165247920000005626040282658124958_);fill:url(#SVGID_00000026141027568310394380000013242288484602142116_);" width="237.1" height="702.2"/>
		</g>
	</g>
	<path class="st0" d="M1697.5,1478.5l-359.4-444.6c0,0-33.3,511.1,385.1,699.2c-8.1-62.7-6-128.9,2.2-194.2
		C1707.1,1501.6,1697.5,1478.5,1697.5,1478.5"/>
	<g>
		<g>
			<defs>
				<path id="SVGID_00000170983668433747900840000002304648696178479790_" d="M1697.5,1478.5l-359.4-444.6
					c27.8,155.7,125.7,455.8,380.9,577.1c1.2-24,3.4-48.1,6.4-72.1C1707.1,1501.6,1697.5,1478.5,1697.5,1478.5"/>
			</defs>
			<clipPath id="SVGID_00000142150203200423656750000002470111735141345981_">
				<use xlink:href="#SVGID_00000170983668433747900840000002304648696178479790_"  style="overflow:visible;"/>
			</clipPath>
			
				<linearGradient id="SVGID_00000070087620132944146880000007693692983773798537_" gradientUnits="userSpaceOnUse" x1="1325.575" y1="1970.7805" x2="1739.0961" y2="1567.3784" gradientTransform="matrix(1 0 0 -1 0 3092.1064)">
				<stop  offset="0" style="stop-color:#4EEB90"/>
				<stop  offset="1" style="stop-color:#00478F"/>
			</linearGradient>
			
				<rect x="1338.1" y="1033.9" style="clip-path:url(#SVGID_00000142150203200423656750000002470111735141345981_);fill:url(#SVGID_00000070087620132944146880000007693692983773798537_);" width="387.3" height="577.1"/>
		</g>
	</g>
	<path class="st0" d="M1684.4,1614l-484.8-303.1c0,0,126.9,463.4,549.9,530.1c-8.8-22.9-15.5-46.9-20.4-71.6
		c-7.7-38.6-11.1-78.9-11.1-119.9C1696.4,1627.6,1684.4,1614,1684.4,1614"/>
	<g>
		<g>
			<defs>
				<path id="SVGID_00000178203698591103682030000003138159459938955454_" d="M1684.4,1614l-484.8-303.1
					c74.7,133.9,256,374.7,523,417.9c-3.1-25.9-4.6-52.5-4.6-79.3C1696.4,1627.6,1684.4,1614,1684.4,1614"/>
			</defs>
			<clipPath id="SVGID_00000034792993446222632120000011489375434859683733_">
				<use xlink:href="#SVGID_00000178203698591103682030000003138159459938955454_"  style="overflow:visible;"/>
			</clipPath>
			
				<linearGradient id="SVGID_00000050621323860633833140000009372316306831092870_" gradientUnits="userSpaceOnUse" x1="1723.6709" y1="1386.6404" x2="1234.851" y2="1732.1116" gradientTransform="matrix(1 0 0 -1 0 3092.1064)">
				<stop  offset="0" style="stop-color:#008A80"/>
				<stop  offset="1" style="stop-color:#AFF022"/>
			</linearGradient>
			
				<rect x="1199.6" y="1310.9" style="clip-path:url(#SVGID_00000034792993446222632120000011489375434859683733_);fill:url(#SVGID_00000050621323860633833140000009372316306831092870_);" width="523" height="417.9"/>
		</g>
	</g>
	<path class="st0" d="M1725.5,1749.4l-456.2-112c0,0,202.8,306,530.8,294.3c-36.6-47-59.1-102.4-71-162.1
		C1727.8,1762.8,1726.6,1756.1,1725.5,1749.4"/>
	<g>
		<g>
			<defs>
				<path id="SVGID_00000058573826406347967070000014621821410636305035_" d="M1725.5,1749.4l-456.2-112
					c89,81.9,274.7,212.8,482,208.1c-9.6-24.3-16.9-49.7-22.2-76C1727.8,1762.8,1726.6,1756.1,1725.5,1749.4"/>
			</defs>
			<clipPath id="SVGID_00000015355520583016412640000014054053727923844773_">
				<use xlink:href="#SVGID_00000058573826406347967070000014621821410636305035_"  style="overflow:visible;"/>
			</clipPath>
			
				<linearGradient id="SVGID_00000148631799749943684160000002795248056061353136_" gradientUnits="userSpaceOnUse" x1="1758.5303" y1="1219.4257" x2="1243.0132" y2="1487.0911" gradientTransform="matrix(1 0 0 -1 0 3092.1064)">
				<stop  offset="0" style="stop-color:#0286CF"/>
				<stop  offset="1" style="stop-color:#51F4E9"/>
			</linearGradient>
			
				<rect x="1269.2" y="1637.4" style="clip-path:url(#SVGID_00000015355520583016412640000014054053727923844773_);fill:url(#SVGID_00000148631799749943684160000002795248056061353136_);" width="482" height="212.8"/>
		</g>
	</g>
	<path class="st0" d="M1756.7,1858.5l-340.6,42.3c0,0,219.9,157.3,464.3,104.2C1821.9,1967,1782.2,1916.4,1756.7,1858.5"/>
	<g>
		<g>
			<defs>
				<path id="SVGID_00000122682404782442208420000011225157531165695159_" d="M1756.7,1858.5l-340.6,42.3
					c86.6,34.5,243.7,76.5,395.9,45.2C1788.8,1919.6,1770.6,1890.2,1756.7,1858.5"/>
			</defs>
			<clipPath id="SVGID_00000183226369048792968810000000595163756791860914_">
				<use xlink:href="#SVGID_00000122682404782442208420000011225157531165695159_"  style="overflow:visible;"/>
			</clipPath>
			
				<linearGradient id="SVGID_00000076568508086420569140000003844987400622903963_" gradientUnits="userSpaceOnUse" x1="1907.449" y1="1140.4459" x2="1382.2634" y2="1200.8843" gradientTransform="matrix(1 0 0 -1 0 3092.1064)">
				<stop  offset="0" style="stop-color:#0286CF"/>
				<stop  offset="1" style="stop-color:#51F4E9"/>
			</linearGradient>
			
				<rect x="1416.1" y="1858.5" style="clip-path:url(#SVGID_00000183226369048792968810000000595163756791860914_);fill:url(#SVGID_00000076568508086420569140000003844987400622903963_);" width="395.9" height="118.8"/>
		</g>
	</g>
	<g>
		<g>
			<defs>
				<path id="SVGID_00000038381040766465994600000002582562695986855059_" d="M1800.3,1741c-53.6-108.8-72.6-305.7,25.1-661.3
					c0,0-71.5,146.2-114.4,326.7c-27.6,116.2-43.3,246.6-20.3,361.4c21.1,105.4,74.8,197.6,181.9,253.3c8.1-8.3,15.8-16.6,23-24.8
					c31.4-35.5,81.9-100.3,107.7-121.5C2003.3,1874.9,1871.4,1885.5,1800.3,1741"/>
			</defs>
			<clipPath id="SVGID_00000018207183455245046790000016027420452942974143_">
				<use xlink:href="#SVGID_00000038381040766465994600000002582562695986855059_"  style="overflow:visible;"/>
			</clipPath>
			
				<linearGradient id="SVGID_00000008140894156905313540000001279890851836860818_" gradientUnits="userSpaceOnUse" x1="1771.5376" y1="1099.535" x2="1881.8115" y2="1861.306" gradientTransform="matrix(1 0 0 -1 0 3092.1064)">
				<stop  offset="0" style="stop-color:#0012AF"/>
				<stop  offset="1" style="stop-color:#DA34C4"/>
			</linearGradient>
			
				<rect x="1667.8" y="1079.7" style="clip-path:url(#SVGID_00000018207183455245046790000016027420452942974143_);fill:url(#SVGID_00000008140894156905313540000001279890851836860818_);" width="335.6" height="941.4"/>
		</g>
	</g>
	<path class="st0" d="M1072.4,2575.1L621.3,3007c0,0,680.8-12.7,763.8-644.6C1230.3,2493.1,1072.4,2575.1,1072.4,2575.1"/>
	<g>
		<g>
			<defs>
				<path id="SVGID_00000160173914740090383350000007302969035637933484_" d="M1072.4,2575.1L621.3,3007
					c178.7-47.6,530.2-197.8,613.2-530.9C1142.2,2538.9,1072.4,2575.1,1072.4,2575.1"/>
			</defs>
			<clipPath id="SVGID_00000083793981083080555530000017337759293276551051_">
				<use xlink:href="#SVGID_00000160173914740090383350000007302969035637933484_"  style="overflow:visible;"/>
			</clipPath>
			
				<linearGradient id="SVGID_00000008861811508230702790000010473472343735175818_" gradientUnits="userSpaceOnUse" x1="1174.354" y1="493.4165" x2="541.6438" y2="126.5913" gradientTransform="matrix(1 0 0 -1 0 3092.1064)">
				<stop  offset="0" style="stop-color:#0286CF"/>
				<stop  offset="1" style="stop-color:#51F4E9"/>
			</linearGradient>
			
				<rect x="621.3" y="2476.2" style="clip-path:url(#SVGID_00000083793981083080555530000017337759293276551051_);fill:url(#SVGID_00000008861811508230702790000010473472343735175818_);" width="613.2" height="530.9"/>
		</g>
	</g>
	<path class="st0" d="M1210.6,2568.3L1025.4,3072c0,0,520.6-266.9,346.2-786C1301.4,2445.4,1210.6,2568.3,1210.6,2568.3"/>
	<g>
		<g>
			<defs>
				<path id="SVGID_00000120532578446670409130000001371280583047419828_" d="M1210.6,2568.3L1025.4,3072
					c119.9-104.2,334.6-352.9,272.8-641.3C1250.7,2513.9,1210.6,2568.3,1210.6,2568.3"/>
			</defs>
			<clipPath id="SVGID_00000005955042864650826300000007601050765890288785_">
				<use xlink:href="#SVGID_00000120532578446670409130000001371280583047419828_"  style="overflow:visible;"/>
			</clipPath>
			
				<linearGradient id="SVGID_00000178206861280381764640000007741032787823338389_" gradientUnits="userSpaceOnUse" x1="1319.4211" y1="529.8448" x2="969.6002" y2="7.8014" gradientTransform="matrix(1 0 0 -1 0 3092.1064)">
				<stop  offset="0" style="stop-color:#0286CF"/>
				<stop  offset="1" style="stop-color:#51F4E9"/>
			</linearGradient>
			
				<rect x="1025.4" y="2430.7" style="clip-path:url(#SVGID_00000005955042864650826300000007601050765890288785_);fill:url(#SVGID_00000178206861280381764640000007741032787823338389_);" width="334.6" height="641.3"/>
		</g>
	</g>
	<path class="st0" d="M1316.7,2483.3l26.3,467.9c0,0,324.7-394.4,4.9-749.9C1346.9,2353.4,1316.7,2483.3,1316.7,2483.3"/>
	<g>
		<g>
			<defs>
				<path id="SVGID_00000142865756897675205090000010951044475399508404_" d="M1316.7,2483.3l26.3,467.9
					c59.9-125.1,145.8-398.8-3.7-608.5C1330,2425.9,1316.7,2483.3,1316.7,2483.3"/>
			</defs>
			<clipPath id="SVGID_00000011711512860707150990000002052988231235019943_">
				<use xlink:href="#SVGID_00000142865756897675205090000010951044475399508404_"  style="overflow:visible;"/>
			</clipPath>
			
				<linearGradient id="SVGID_00000022533524110781095010000017402362570106587019_" gradientUnits="userSpaceOnUse" x1="1439.3638" y1="644.4042" x2="1340.0238" y2="104.7824" gradientTransform="matrix(1 0 0 -1 0 3092.1064)">
				<stop  offset="0" style="stop-color:#0286CF"/>
				<stop  offset="1" style="stop-color:#51F4E9"/>
			</linearGradient>
			
				<rect x="1316.7" y="2342.7" style="clip-path:url(#SVGID_00000011711512860707150990000002052988231235019943_);fill:url(#SVGID_00000022533524110781095010000017402362570106587019_);" width="172.1" height="608.5"/>
		</g>
	</g>
	<g>
		<g>
			<defs>
				<path id="SVGID_00000011026896467404899430000018256441636128849319_" d="M1518.2,1839.1c-223.5,280.6-434.2,655.1-505.4,795.2
					l423.8-75c411.1-97.6,516.4-357.1,547.7-562c2.8-18.1,5-35.8,6.7-53c7.7-74.5,13.1-203.9,26.7-254.8
					c7.9-29.6,25.6-53.2,59.7-61.1c24.8-5.8,54.3-3.5,75.3,2.8c-28.7-49.7-92.7-72.8-92.7-72.8c-16.9-34.4-49.4-48.9-76.9-54.9
					c-98-21.2-222,65.5-348.9,200.5C1595.7,1745.1,1556.8,1790.7,1518.2,1839.1"/>
			</defs>
			<clipPath id="SVGID_00000076563603460366996470000009703290846732886688_">
				<use xlink:href="#SVGID_00000011026896467404899430000018256441636128849319_"  style="overflow:visible;"/>
			</clipPath>
			
				<linearGradient id="SVGID_00000003066740779718871760000015847514401981620370_" gradientUnits="userSpaceOnUse" x1="1737.5891" y1="770.8883" x2="1318.7217" y2="1482.4301" gradientTransform="matrix(1 0 0 -1 0 3092.1064)">
				<stop  offset="0" style="stop-color:#0F0DB2"/>
				<stop  offset="1" style="stop-color:#EC2FD3"/>
			</linearGradient>
			
				<rect x="1012.8" y="1482.3" style="clip-path:url(#SVGID_00000076563603460366996470000009703290846732886688_);fill:url(#SVGID_00000003066740779718871760000015847514401981620370_);" width="1140" height="1152"/>
		</g>
	</g>
	<defs>
		<filter id="Adobe_OpacityMaskFilter" filterUnits="userSpaceOnUse" x="1012.8" y="1997.2" width="971.5" height="637.1">
			<feColorMatrix  type="matrix" values="1 0 0 0 0  0 1 0 0 0  0 0 1 0 0  0 0 0 1 0"/>
		</filter>
	</defs>
	
		<mask maskUnits="userSpaceOnUse" x="1012.8" y="1997.2" width="971.5" height="637.1" id="SVGID_00000069371226642270539880000007942811313062061214_">
		<g class="st12">
			
				<linearGradient id="SVGID_00000106146279267289556320000007993104389675955646_" gradientUnits="userSpaceOnUse" x1="-781.6374" y1="880.4028" x2="-719.8401" y2="337.4584" gradientTransform="matrix(1 0 0 -1 2232.9546 2781.0347)">
				<stop  offset="0" style="stop-color:#FFFFFF"/>
				<stop  offset="1" style="stop-color:#000000"/>
			</linearGradient>
			
				<rect x="1012.8" y="1997.2" style="fill:url(#SVGID_00000106146279267289556320000007993104389675955646_);" width="971.5" height="637.1"/>
		</g>
	</mask>
	<path class="st14" d="M1190.3,2319.1c-80.9,133.8-144.3,249.9-177.5,315.2l423.8-75c411.1-97.6,516.4-357.1,547.7-562
		C1984.3,1997.2,1766,2375.9,1190.3,2319.1"/>
	<path class="st0" d="M1059.4,832.2L666.6,19.9c0,0-285.4,941.3,546,1336.6C1101.9,1085.6,1059.4,832.2,1059.4,832.2"/>
	<g>
		<g>
			<defs>
				<path id="SVGID_00000137822649668211246170000017009451841007309981_" d="M1059.4,832.2L666.6,19.9
					c-14,266.8,35.9,816.7,456.7,1079C1078.2,944.2,1059.4,832.2,1059.4,832.2"/>
			</defs>
			<clipPath id="SVGID_00000021821658484894551870000004668455842269883781_">
				<use xlink:href="#SVGID_00000137822649668211246170000017009451841007309981_"  style="overflow:visible;"/>
			</clipPath>
			
				<linearGradient id="SVGID_00000062160105342817581770000002816610416762447240_" gradientUnits="userSpaceOnUse" x1="709.0133" y1="3039.3452" x2="994.3184" y2="2231.3928" gradientTransform="matrix(1 0 0 -1 0 3092.1064)">
				<stop  offset="0" style="stop-color:#FFCE4B"/>
				<stop  offset="1" style="stop-color:#F452CB"/>
			</linearGradient>
			
				<rect x="652.5" y="19.9" style="clip-path:url(#SVGID_00000021821658484894551870000004668455842269883781_);fill:url(#SVGID_00000062160105342817581770000002816610416762447240_);" width="470.8" height="1079"/>
		</g>
	</g>
	<path class="st0" d="M1146.7,1210.5L413.3,685c0,0,180.4,870.8,988.5,913c-47.3-75.4-87.9-156.3-122.5-236.6
		C1196.1,1273.5,1146.7,1210.5,1146.7,1210.5"/>
	<g>
		<g>
			<defs>
				<path id="SVGID_00000100360258376550308650000007684584929173632135_" d="M1146.7,1210.5L413.3,685
					c113,236.3,410.3,682.3,888.5,726.9c-7.8-16.8-15.3-33.7-22.5-50.5C1196.1,1273.5,1146.7,1210.5,1146.7,1210.5"/>
			</defs>
			<clipPath id="SVGID_00000049944419342237462220000008605569654765281209_">
				<use xlink:href="#SVGID_00000100360258376550308650000007684584929173632135_"  style="overflow:visible;"/>
			</clipPath>
			
				<linearGradient id="SVGID_00000066481683506406438010000011328655960398037133_" gradientUnits="userSpaceOnUse" x1="507.9758" y1="2317.9358" x2="1139.507" y2="1822.3514" gradientTransform="matrix(1 0 0 -1 0 3092.1064)">
				<stop  offset="0" style="stop-color:#F452CB"/>
				<stop  offset="1" style="stop-color:#0928D8"/>
			</linearGradient>
			
				<rect x="413.3" y="685" style="clip-path:url(#SVGID_00000049944419342237462220000008605569654765281209_);fill:url(#SVGID_00000066481683506406438010000011328655960398037133_);" width="888.5" height="726.9"/>
		</g>
	</g>
	<path class="st0" d="M1261.3,1461.4l-869.5-240.8c0,0,426.4,686.6,1136.1,544c-67.9-73-126-160-175.4-251.3
		C1294.9,1482.3,1261.3,1461.4,1261.3,1461.4"/>
	<g>
		<g>
			<defs>
				<path id="SVGID_00000163032656077081340190000001531989341831821967_" d="M1261.3,1461.4l-869.5-240.8
					c178.6,174.3,579.7,469.6,1018.7,391.1c-20.6-31.9-39.9-64.9-58-98.4C1294.9,1482.3,1261.3,1461.4,1261.3,1461.4"/>
			</defs>
			<clipPath id="SVGID_00000093177822562407647060000001600034662033137340_">
				<use xlink:href="#SVGID_00000163032656077081340190000001531989341831821967_"  style="overflow:visible;"/>
			</clipPath>
			
				<linearGradient id="SVGID_00000097480379011565415930000017404188220362662809_" gradientUnits="userSpaceOnUse" x1="449.6365" y1="1705.858" x2="1350.7671" y2="1567.6454" gradientTransform="matrix(1 0 0 -1 0 3092.1064)">
				<stop  offset="0" style="stop-color:#4EEB90"/>
				<stop  offset="1" style="stop-color:#00478F"/>
			</linearGradient>
			
				<rect x="391.8" y="1220.7" style="clip-path:url(#SVGID_00000093177822562407647060000001600034662033137340_);fill:url(#SVGID_00000097480379011565415930000017404188220362662809_);" width="1018.7" height="469.6"/>
		</g>
	</g>
	<path class="st0" d="M1368.9,1647.5l-900.5,56c0,0,588.3,478.3,1192.6,175.6c-32.3-21.4-63-45.9-91.9-73.1
		c-45.3-42.4-86.7-91.2-124.3-143.8C1396.8,1653.8,1368.9,1647.5,1368.9,1647.5"/>
	<g>
		<g>
			<defs>
				<path id="SVGID_00000158001378044448649540000002478754737450887606_" d="M1368.9,1647.5l-900.5,56
					c218.8,103.3,672.6,246,1055,56.3c-27.9-30.4-54.1-63.1-78.7-97.6C1396.8,1653.8,1368.9,1647.5,1368.9,1647.5"/>
			</defs>
			<clipPath id="SVGID_00000018951125094150663340000006309518782715039405_">
				<use xlink:href="#SVGID_00000158001378044448649540000002478754737450887606_"  style="overflow:visible;"/>
			</clipPath>
			
				<linearGradient id="SVGID_00000028306583482998923110000001950651405215095952_" gradientUnits="userSpaceOnUse" x1="1503.674" y1="1296.5028" x2="559.0787" y2="1291.1562" gradientTransform="matrix(1 0 0 -1 0 3092.1064)">
				<stop  offset="0" style="stop-color:#008A80"/>
				<stop  offset="1" style="stop-color:#AFF022"/>
			</linearGradient>
			
				<rect x="468.4" y="1647.5" style="clip-path:url(#SVGID_00000018951125094150663340000006309518782715039405_);fill:url(#SVGID_00000028306583482998923110000001950651405215095952_);" width="1055" height="302"/>
		</g>
	</g>
	<path class="st0" d="M1545.9,1783.4l-688.4,275.1c0,0,541.2,206.6,951.5-109.6c-90.2-26.7-169.8-77.3-240-142.9
		C1561.2,1798.6,1553.5,1791.1,1545.9,1783.4"/>
	<g>
		<g>
			<defs>
				<path id="SVGID_00000112628244570361091700000000258422731753799351_" d="M1545.9,1783.4l-688.4,275.1
					c189.5,23.4,548,20.9,809.7-175.4c-34.6-22.3-67.3-48.3-98.2-77.2C1561.2,1798.6,1553.5,1791.1,1545.9,1783.4"/>
			</defs>
			<clipPath id="SVGID_00000052062697395499658160000005860331531460116917_">
				<use xlink:href="#SVGID_00000112628244570361091700000000258422731753799351_"  style="overflow:visible;"/>
			</clipPath>
			
				<linearGradient id="SVGID_00000093857738989346131300000011019694317900588696_" gradientUnits="userSpaceOnUse" x1="1695.7179" y1="1221.3417" x2="788.2753" y2="1091.7069" gradientTransform="matrix(1 0 0 -1 0 3092.1064)">
				<stop  offset="0" style="stop-color:#0286CF"/>
				<stop  offset="1" style="stop-color:#51F4E9"/>
			</linearGradient>
			
				<rect x="857.5" y="1783.4" style="clip-path:url(#SVGID_00000052062697395499658160000005860331531460116917_);fill:url(#SVGID_00000093857738989346131300000011019694317900588696_);" width="809.7" height="298.5"/>
		</g>
	</g>
	<path class="st0" d="M1686.2,1894.9l-398.3,367c0,0,426.6,0.1,691.7-292.5C1869.5,1974.2,1772.1,1945.8,1686.2,1894.9"/>
	<g>
		<g>
			<defs>
				<path id="SVGID_00000127015727599645360060000013984469157473805713_" d="M1686.2,1894.9l-398.3,367
					c142.9-35.2,383-125.5,549.6-305.4C1783.5,1943.8,1733.1,1922.7,1686.2,1894.9"/>
			</defs>
			<clipPath id="SVGID_00000060002031442053525630000015806684778204642964_">
				<use xlink:href="#SVGID_00000127015727599645360060000013984469157473805713_"  style="overflow:visible;"/>
			</clipPath>
			
				<linearGradient id="SVGID_00000086662810167881029110000017449510646340428945_" gradientUnits="userSpaceOnUse" x1="1956.3221" y1="1232.0133" x2="1226.7172" y2="827.4932" gradientTransform="matrix(1 0 0 -1 0 3092.1064)">
				<stop  offset="0" style="stop-color:#0286CF"/>
				<stop  offset="1" style="stop-color:#51F4E9"/>
			</linearGradient>
			
				<rect x="1287.9" y="1894.9" style="clip-path:url(#SVGID_00000060002031442053525630000015806684778204642964_);fill:url(#SVGID_00000086662810167881029110000017449510646340428945_);" width="549.6" height="367"/>
		</g>
	</g>
	<g>
		<g>
			<defs>
				<path id="SVGID_00000014611026236707232820000012994867520998273685_" d="M1634.3,1704c-168.7-90.5-373.8-325.6-574.9-871.8
					c0,0,42.4,253.4,153.1,524.4c71.3,174.5,170.9,356.3,305.7,482.5c123.9,115.9,277.4,184.9,466.1,158.2c2.8-18.1,5-35.8,6.7-53
					c7.7-74.5,13.1-203.9,26.7-254.8C2017.8,1689.5,1858.2,1824.2,1634.3,1704"/>
			</defs>
			<clipPath id="SVGID_00000106843616464681448070000016922894974917175470_">
				<use xlink:href="#SVGID_00000014611026236707232820000012994867520998273685_"  style="overflow:visible;"/>
			</clipPath>
			
				<linearGradient id="SVGID_00000029762895529183274390000005111053430310733742_" gradientUnits="userSpaceOnUse" x1="1854.7731" y1="1052.418" x2="1296.9678" y2="2131.4495" gradientTransform="matrix(1 0 0 -1 0 3092.1064)">
				<stop  offset="0" style="stop-color:#0012AF"/>
				<stop  offset="1" style="stop-color:#DA34C4"/>
			</linearGradient>
			
				<rect x="1059.4" y="832.2" style="clip-path:url(#SVGID_00000106843616464681448070000016922894974917175470_);fill:url(#SVGID_00000029762895529183274390000005111053430310733742_);" width="958.3" height="1191.8"/>
		</g>
	</g>
	<defs>
		
			<filter id="Adobe_OpacityMaskFilter_00000180367310885490157170000001445387365541046438_" filterUnits="userSpaceOnUse" x="1634.3" y="1500.3" width="425.8" height="203.7">
			<feColorMatrix  type="matrix" values="1 0 0 0 0  0 1 0 0 0  0 0 1 0 0  0 0 0 1 0"/>
		</filter>
	</defs>
	
		<mask maskUnits="userSpaceOnUse" x="1634.3" y="1500.3" width="425.8" height="203.7" id="SVGID_00000106129040769628647810000006436348164939224758_">
		<g style="filter:url(#Adobe_OpacityMaskFilter_00000180367310885490157170000001445387365541046438_);">
			
				<linearGradient id="SVGID_00000152957159710940324050000001264913381643666106_" gradientUnits="userSpaceOnUse" x1="-614.1681" y1="1058.9631" x2="-575.7189" y2="739.7697" gradientTransform="matrix(1 0 0 -1 2438.7214 2473.0256)">
				<stop  offset="0" style="stop-color:#FFFFFF"/>
				<stop  offset="1" style="stop-color:#000000"/>
			</linearGradient>
			
				<rect x="1634.3" y="1500.3" style="fill:url(#SVGID_00000152957159710940324050000001264913381643666106_);" width="425.8" height="203.7"/>
		</g>
	</mask>
	<path class="st24" d="M1634.3,1704c244.9-205.2,425.8-145.7,425.8-145.7c-16.9-34.4-49.4-48.9-76.9-54.9
		C1885.2,1482.3,1761.2,1569,1634.3,1704"/>
</g>
</svg>
